<?xml version="1.0" encoding="UTF-8"?>
<svg id="IRMusicLogoSmall" width="257.64" height="199.79" fill="currentColor" preserveAspectRatio="xMidYMid" version="1.0" xmlns="http://www.w3.org/2000/svg" zoomAndPan="magnify">
 <path id="initialI" d="m72.282 52.868c7.9219 0 8.4766 6.5391 8.4766 24.688v40.895c0 18.145-0.55469 24.684-8.4766 24.684v0.92187h24.871v-0.92187c-7.9219 0-8.4727-6.5391-8.4727-24.684v-40.895c0-18.148 0.55078-24.688 8.4727-24.688v-0.92188h-24.871z"/>
 <path id="initialR" d="m144.56 144.06h24.777v-0.92187c-7.9219 0-8.4727-6.5391-8.4727-24.684v-64.105c5.6172-2.0273 10.039-2.9492 16.855-2.9492 17.133 0 27.91 9.3945 27.91 24.684 0 11.055-7.4609 22.383-18.977 22.383-8.5664 0-12.801-5.25-18.238-5.25-1.6562 0-3.2226 0.92188-3.2226 3.1328 0 6.2617 9.7656 6.6328 18.699 20.078 14.551 21.828 17.133 27.633 21.367 27.633h14.094v-0.92187c-10.5 0-19.066-16.395-26.344-27.723-7.4609-11.605-26.895-12.895-26.895-18.883 0-2.1172 1.5664-2.3945 2.6719-2.3945 3.8672 0 9.7617 5.8945 18.422 5.8945 16.027 0 26.34-11.422 26.34-24.039 0-15.016-10.961-25.883-30.578-25.883-10.684 0-17.223 1.8398-27.355 1.8398h-11.055v0.92188c7.9219 0 8.4766 6.5391 8.4766 24.688v40.895c0 18.145-0.55469 24.684-8.4766 24.684z"/>
 <path id="bow" d="m124.14 196.96 0.0117-2.5156h-0.0195l-4e-3 -1.8438h0.0234l0.125-25.969h-0.0195v-6.0117l0.043 4e-3 0.70703-146.95 0.0391-7.3594v-0.48828l0.0508-0.0039c0.1875-0.93359 0.87891-1.8047 2.0156-2.3516 0.33984-0.15625 0.66406-0.26172 0.9375-0.26953 0.66406 0 1.0117-0.89844 1.1758-1.7891 0.16015-0.83203 0.4336-1.332 1.2539-1.4062 0.0937-0.0039 0.15625 0.07422 0.16017 0.14453l-0.0703 8.6214-0.19921 168.07-0.44532 4e-3 0.41407 4e-3 -0.0508 10.895c0 0.52735-0.44531 0.96094-0.97265 0.95703l-3.25-8e-3 -0.0117 1.0274-0.0156 2.9297 0.043 4e-3 -0.0117 1.7617-0.0391-4e-3 -0.0273 5.3164-1.8672 0.0625zm5.0781-12.695c4e-3 -0.54687-0.45704-1.0039-1.0274-1.0078-0.57031-8e-3 -1.0352 0.44531-1.0391 0.99219-4e-3 0.55078 0.45703 1.0078 1.0273 1.0117 0.58203-4e-3 1.0352-0.44531 1.0391-0.9961zm-2.4141-7.2344c0.0977 0.67187 0.6875 1.1875 1.4102 1.1953 0.79297 4e-3 1.2305-0.61328 1.2305-1.3867h-0.0195l0.22656-168.02 0.92578 0.0039-2.1914-0.11719c-0.8125-0.0039-1.4766 0.65625-1.4844 1.4688l-0.69141 148.38-0.0117 2.1172 0.0195 4e-3 -0.0312 5.9219h-0.0195l-0.0391 7.3398-0.0352 7.6758 0.0234-4.7852 0.44922-4e-3c0.1211 8e-3 0.22656 0.0899 0.23828 0.21094z"/>
</svg>
